<?xml version="1.0" encoding="UTF-8"?>
<svg id="Calque_1" data-name="Calque 1" xmlns="http://www.w3.org/2000/svg" viewBox="0 0 723.26 910.47">
  <defs>
    <style>
      .cls-1 {
        fill: #2d53a0;
      }

      .cls-2 {
        fill: #69aade;
      }

      .cls-3 {
        fill: #67a8dc;
      }

      .cls-4 {
        fill: #5c94cf;
      }

      .cls-5 {
        fill: #68aadd;
      }

      .cls-6 {
        fill: #6aade0;
      }

      .cls-7 {
        fill: #5369b0;
      }

      .cls-8 {
        fill: #2e55a1;
      }

      .cls-9 {
        fill: #6bafe1;
      }

      .cls-10 {
        fill: #2f56a3;
      }
    </style>
  </defs>
  <g>
    <path class="cls-1" d="M200.33,3.5c1.33-2.7,3.59-2.42,5.94-.74.69.49,1.53.7,2.38.65,70.35-4.66,142.91-4.4,213.3-.03,1.12.07,2.14-.43,2.98-1.17,1.4-1.24,3.26-.75,5.13.66.53.4,1.14.67,1.8.73,85.72,7.75,66.25,104.51,67.66,167.43.05,2.35,2.23,4.07,4.53,3.63,42.26-7.94,71,38.81,42.17,73.47-3.96,4.76-24.03,21.87-29.49,25.58-10.24,6.97-19.75,1.1-17.49,15.86.27,1.75,1.74,3.07,3.51,3.24,34.31,3.17,51.16,22.64,43.51,58.7-3.98,18.75-29.21,36.21-47.36,47.69-2.59,1.64-2.3,5.51.51,6.76l27.19,12.09c.45.2.88.5,1.23.85,38.17,38.87.31,65.22-28.74,91.11-1.16,1.03-1.67,2.65-1.2,4.12,6.4,19.87-7.68,50.08,11.77,59.59,1.85.9,4.11.04,5-1.81,9.71-20.25,40.46-22.97,59.88-12.93,1.55.8,3.4.54,4.64-.69,23.89-23.72,59.91-21.28,79.4,7.58,28.72,42.51,48.25,104.73,64.51,153.32.13.39.2.8.2,1.21v60.81c0,.36-.05.73-.15,1.08-17.52,63.21-64.95,104.89-127.9,120.96-142.4,36.34-203.64-72.46-299.69-148.95-.24-.19-.46-.41-.65-.65-7.41-9.3-5.2-17.28-1.52-25.66,1.51-3.44-2.32-6.72-5.54-4.78-104.91,63.18-240.58,25.58-275-99.83-3.05-11.13-3.53-21.93-4.96-33.15-.11-.85-.5-1.64-1.11-2.25l-1.49-1.49c-.65-.65-1.07-1.51-1.14-2.43-.44-6.19.42-12.97.13-19.24l-3.4-34.03c-.03-.27-.03-.55,0-.82,9.41-92.05,48.4-148.97,83.85-227.26,11.56-25.53,5.75-53.73,42.85-47.58,2.67.44,4.88-1.94,4.37-4.6-.47-2.46-.47-5.08-.56-7.52-1.7-46.91-3.34-109.18.01-155.29,3.22-44.24,21.39-79.66,68.96-84.21ZM169.37,274.3V72.26c0-1.03.41-2.02,1.15-2.74l4.67-4.6c.72-.71,1.69-1.11,2.7-1.11h275.4c1.01,0,1.98.4,2.7,1.11l4.67,4.6c.73.72,1.15,1.71,1.15,2.74v231.04c0,2.97,3.22,4.82,5.78,3.33l19.97-11.6c1.19-.69,1.92-1.96,1.91-3.33l-.45-216.82c0-.31-.04-.62-.11-.93-7.4-31.8-25.39-56.25-59.79-60.12-71.43-8.04-156.96,6.01-230.02-.02-.37-.03-.75-.01-1.11.06-27.74,5.66-49.46,28.24-52.7,56.78-6.4,56.3,4.85,123.49-.14,181.2-.08.93.18,1.85.74,2.6l16.56,22.16c2.22,2.96,6.93,1.4,6.93-2.3ZM406.75,482.16c9.57-28.33,24.96-29.87,42.96-49.53.65-.71,1.02-1.66,1.02-2.63v-13.52c0-1.52-.93-2.88-2.32-3.5-41.29-18.65-35-67.57,3.53-87.44,3.82-2.98-.47-5.9-.47-6.95V79.66c0-2.12-1.72-3.85-3.85-3.85H186.98c-2.12,0-3.85,1.72-3.85,3.85v211.38c0,6.39-2.9,19.16-8.8,24.83-1.51,1.45-1.51,3.98,0,5.43,5.91,5.67,8.8,18.44,8.8,24.83v228.6c0,2.12,1.72,3.85,3.85,3.85h148.93c2.67,0,4.57-2.66,3.64-5.16-15.3-41.21-43.57-79.11-49.58-122.87-.07-.51-.05-1.03.06-1.53,7.04-30.81,43.09-45.87,71.09-33.09,18.52,8.46,33.94,47.44,42.19,66.22.8,1.83-1.8,6.95,1.72,6.92,3.48,0,.91-4.54,1.72-6.92ZM499.64,260.39c0,2.66,2.66,4.59,5.14,3.62,11.98-4.66,32.73-21.55,36.32-27.89,15.32-26.98-12.43-61.9-39.63-46.09-1.16.67-1.84,1.96-1.84,3.3v67.06ZM338.96,670.97c2.04-2.53.27-6.29-2.98-6.29h-140.8c-26.15,0-62.04-39.19-66.27-64.53-4.78-28.59-3.59-109.87-.76-140.31,5.26-56.53,62.01-161.82-3.95-193.83-.94-.46-2.05-.5-3.04-.14l-11.98,4.42c-1.23.45-2.12,1.51-2.4,2.79-8.78,40.2-35.17,70.46-51.53,106.89-23.72,52.83-46.06,139.07-40.27,196.46,17.46,172.82,192.05,212.95,313.34,105.27,1.48-1.32,7.13-6.39,10.64-10.74ZM438.82,348.96c-20.44,23.87-1.48,59.2,31.37,53.8,8.39-1.38,53.88-35.49,60.19-43.06,23.1-27.74-9.76-70.07-48.78-46.16-2.68,1.64-40.98,33.31-42.78,35.42ZM169.37,582.47v-191.31c0-4.57-6.54-5.33-7.59-.89l-16.3,68.89c-.1.43-.13.86-.07,1.3,5.43,42.88-12.61,124.94,11.78,159.59,7.23,10.27,32.76,27.4,44.87,27.4h157.3c2.83,0,4.7-2.96,3.47-5.51l-22.92-47.66c-.59-1.23-1.77-2.06-3.13-2.18-47.48-4.2-106.51,6.57-152.09.43-6.92-.93-10.45-2.38-14.54-7.73-.5-.66-.77-1.49-.77-2.33ZM484.15,409.85v3.44c2.23-1.15,2.23-2.3,0-3.44ZM473.83,413.29v3.44c2.23-1.15,2.23-2.3,0-3.44ZM519.07,477.52c23.86-25.56,7.54-62.58-27.18-56.62-10.14,1.74-58.78,38.72-66.38,47.33-3.41,3.87-6.49,7.78-7.72,12.95-6.94,30.89,21.57,52.74,49.66,37.59,3.35-1.81,48.44-37.84,51.63-41.25ZM439.83,596.11l-70.49-159.86c-.2-.46-.49-.9-.86-1.25-24.77-24.43-73.9-8.44-66.25,28.71.06.31.16.61.29.9l124.9,277.52c-2.97,5.53-6.01.05-8.62-1.7-22.29-15-39.65-27.74-68.83-27.78-17.12-.03-56.46,9.45-43.56,32.51.23.42.56.8.92,1.1,85.71,71.44,149.82,176.96,278.41,147.55,109.2-24.98,146.45-110.28,113.58-213.78-5.58-17.57-44.84-102.63-55.12-113.56-16.75-17.8-53.17-17.42-58.18,9.09-.34,1.78-1.96,3.04-3.77,3.03h0c-1.1,0-2.13-.52-2.86-1.34-19.68-22.31-50.13-13.74-62.4,10.76-1.07,2.14-3.8,2.8-5.71,1.36-21.33-16.08-46.98-20.19-62.21,6.36-.49.85-1.27,1.5-2.2,1.79l-2.4.74c-1.86.57-3.86-.34-4.65-2.13ZM489.17,557.38l-1.29-31.02c-.12-2.87-3.24-4.61-5.74-3.19l-17.87,10.12c-1.18.67-1.92,1.91-1.95,3.26l-.45,20.9c-.05,2.16,1.69,3.93,3.85,3.93h19.62c2.19,0,3.93-1.82,3.84-4.01ZM447.83,534.07c-5.47.15-10.34-.72-15.09-2.58-3.12-1.22-6.18,1.89-4.94,5l16.83,42.09c7.41,5.19,7.55-28.6,7.07-40.84-.08-2.08-1.8-3.73-3.87-3.67ZM315.13,708.04c-.63.67-1.47,1.04-2.38,1.21-1.11.21-2.5,1.17-2.34,1.91.58,2.68,2.82,1.42,3.53-.05.55-1.14,1.62-1.92,2.87-2.11l42.91-6.44c.46-.07.94-.05,1.4.05l31.49,6.92c3.05.67,5.59-2.39,4.37-5.27l-18.84-44.25c-.62-1.46-2.08-2.39-3.67-2.34l-12.27.41c-1.78.06-3.33,1.33-3.63,3.08-3.98,23-28.92,31.4-43.44,46.88Z"/>
    <path class="cls-1" d="M7.67,588.92c-.03-.24-.87-6.79-1.14-9.34l1.14,9.34Z"/>
    <path class="cls-9" d="M341.38,664.68c3.05,2.57-10.63,14.87-13.06,17.03-121.29,107.69-295.88,67.56-313.34-105.27-5.8-57.39,16.55-143.63,40.27-196.46,16.64-37.06,43.65-67.72,51.96-108.96l15.49-5.71c68.32,31.13,10.76,137.58,5.45,194.53-2.83,30.44-4.02,111.71.76,140.31,4.23,25.33,40.12,64.53,66.27,64.53h146.21Z"/>
    <path class="cls-9" d="M169.37,583.75c4.44,6.22,7.97,7.79,15.31,8.78,46.28,6.24,106.43-4.96,154.26-.22l26.52,55.15h-163.41c-12.11,0-37.64-17.13-44.87-27.4-24.51-34.83-6.16-117.55-11.86-160.24l24.05-101.62v225.56Z"/>
    <path class="cls-9" d="M438.82,348.96c1.81-2.11,40.1-33.78,42.78-35.42,39.03-23.91,71.88,18.42,48.78,46.16-6.31,7.57-51.8,41.68-60.19,43.06-32.85,5.4-51.81-29.93-31.37-53.8Z"/>
    <polygon class="cls-5" points="489.33 561.39 461.77 561.39 462.36 534.37 487.62 520.07 489.33 561.39"/>
    <path class="cls-1" d="M484.15,409.85c2.23,1.15,2.23,2.3,0,3.44v-3.44Z"/>
    <path class="cls-1" d="M473.83,413.29c2.23,1.15,2.23,2.3,0,3.44v-3.44Z"/>
    <path class="cls-7" d="M313.86,709.44c1.47,1.47-2.62,5.49-3.44,1.72-.23-1.04,2.63-2.53,3.44-1.72Z"/>
    <path class="cls-10" d="M330,600.36c23.54,17.26-7.65,55.97-28.37,33.5-18.05-19.58,6.94-49.22,28.37-33.5Z"/>
    <path class="cls-3" d="M323.43,610.43c12.01,12.42-10.91,24.28-16.37,16.28-4.51-6.61,5.86-27.15,16.37-16.28Z"/>
    <g>
      <path class="cls-9" d="M441.2,599.24l7.13-2.18c16.02-29.68,44.39-23.47,66.74-4.7,10.87-28.29,44.74-39.11,65.46-13.8l5.08.03c2.71-29.51,41.24-30.6,58.61-12.14,10.28,10.93,49.54,95.99,55.12,113.56,32.87,103.5-4.37,188.81-113.58,213.78-128.87,29.47-192.97-76.56-278.96-148.01-14.01-23.53,25.91-33.17,43.19-33.15,29.17.04,46.53,12.78,68.83,27.78,2.61,1.75,5.65,7.23,8.62,1.7l-125.09-277.94c-8.22-37.76,42.01-53.95,66.69-28.63l72.18,163.69Z"/>
      <path class="cls-9" d="M519.07,477.52c-3.18,3.41-48.28,39.44-51.63,41.25-28.08,15.15-56.6-6.7-49.66-37.59,1.23-5.17,4.31-9.08,7.72-12.95,7.6-8.61,56.23-45.59,66.38-47.33,34.72-5.96,51.04,31.06,27.18,56.62Z"/>
      <path class="cls-2" d="M451.47,533.83c.58,4.71,1.73,50.74-6.83,44.75l-20.65-51.64c8.73,5.6,16.95,7.99,27.48,6.89Z"/>
      <path class="cls-4" d="M406.75,482.16c-.81,2.39,1.76,6.92-1.72,6.92-3.52.03-.92-5.09-1.72-6.92h3.44Z"/>
    </g>
  </g>
  <g>
    <path class="cls-1" d="M423.95.05c3,.98,2.96,2.13,0,3.44C358.3.26,272.61-.32,207.21,3.5c-3-.98-2.96-2.13,0-3.44h216.74Z"/>
    <path class="cls-8" d="M207.21.05v3.44c-2.27.13-4.62-.22-6.88,0V.05h6.88Z"/>
    <path class="cls-8" d="M430.83.05v3.44c-2.27-.18-4.6.11-6.88,0V.05h6.88Z"/>
    <path class="cls-1" d="M4.23,564.81c-5.49-7.1-4.41-24.82-3.44-34.44,6.64,8.12,2.92,23.44,3.44,34.44Z"/>
    <path class="cls-9" d="M403.31,482.16c-8.25-18.78-23.67-57.77-42.19-66.22-28.23-12.89-64.64,2.52-71.25,33.85,6.02,45.91,36.68,85.33,51.52,128.8h-158.25v-232.45c0-7.99-4.53-25.94-13.8-27.55,9.28-1.61,13.8-19.56,13.8-27.55V75.81h268.34v242.78c0,1.06,4.29,3.98.47,6.95-39.23,20.23-45.04,70.59-1.21,88.44v17.52c-18.44,20.74-34.23,21.8-43.98,50.66-.98,3.01-2.13,2.96-3.44,0Z"/>
    <path class="cls-9" d="M169.37,285.88l-24.36-32.6c5.3-58.03-6.18-125.86.27-182.63,3.27-28.73,25.25-51.42,53.26-56.89,73.18,6.15,158.97-7.99,230.58.07,34.56,3.89,52.56,28.56,59.89,60.58l.45,219.51-27.67,16.07V70.65l-6.94-6.83H176.3l-6.94,6.83v215.23Z"/>
    <path class="cls-6" d="M499.64,265.21v-74.04c27.76-18.53,57.13,17.36,41.46,44.95-4.2,7.39-31.73,29.15-41.46,29.09Z"/>
    <path class="cls-8" d="M262.25,44.82l1.72-13.77h103.21c6.78,5.25,6.99,8.37,0,13.77h-104.93Z"/>
  </g>
</svg>